<svg id="lineart" xmlns="http://www.w3.org/2000/svg" viewBox="0 0 544.19 573.66"><defs><style>.cls-1{fill:#fff;}.cls-2,.cls-3,.cls-4{fill:none;}.cls-2,.cls-3{stroke:#fff;}.cls-2{stroke-width:3.88px;}.cls-3{stroke-width:0.19px;}</style></defs><title>Kid-Scrappy_head_white</title><path class="cls-1" d="M491.85,315.75c1.39,1.19-6,2.35-8.87,3.69-2.21,1.05-5.79,6.74-6.27,6.79s-4.39-1.17.07-6.35C477.49,317.82,486.41,311.09,491.85,315.75Z" transform="translate(-33.9 -110.46)"/><path class="cls-1" d="M425.8,471.18c5.9,10.08,9.35,36.76,2,47.8-25.71-4.22-45.72-20.33-59.75-36.88a215.29,215.29,0,0,1-36.37-60.27c16.55,19.63,41.28,30,68.11,40.6,3.61,1.42,9.13,6.1,11.27,7.89,9,7.58,9.74,20.39,11,34.12,5.71-18-2.78-31.08-9.54-37.77C416,467.69,422.31,470.17,425.8,471.18Z" transform="translate(-33.9 -110.46)"/><path class="cls-2" d="M529.11,356.89c10.67-24.13,14.44-74.86,0-96.1-2.21,1.85-3.13,3.53-5.2,7.79-5.83-25.58-18.81-44.77-32.21-61.3-21.93-27.08-50.53-47.41-84.16-62.87-18.59-8.54-45.06-14.25-52.47-33.24-1.9,14.79,4.23,22.37,9.87,29.09-33.71-12.89-88.7-20.38-129.88-9.35-38.3,10.26-71.3,31.67-85.2,63.9,8.48-5.35,22.59-12.39,37.41-15.07-27.11,15.48-52.92,33.51-70.66,58.71-17.36,24.67-40.16,63.21-37.45,91.71,8.11-7.75,16.23-14.25,25-16.91-20,20.66-36.55,47-48.84,77.41-8.63,21.43-19,45.17-19.44,76-.14,9.37.54,18.77,5.94,26.82,5.33-17.36,13.27-34.87,25.45-43.64-13.16,27.87-21.33,61.43-22.82,100.66-.11,3.1-.41,8.53.81,13.53,6.22-2.57,20.14-6.46,26.25-8,18.35-4.57,42.82-8.09,63.82-7.5,13.95.39,27.81,3.72,40.72,6.86,25.63,6.22,50.58,10.62,74.62,18.07,34.93,10.83,72.6,21.86,89.88,49.87,1.82,3,5.16,9.11,5.71,12,.66,3.38.43,5.44-3.9,10,25.3,7.71,47.62-8.62,55.33-23.54,7.19,9.93,13.93,26.77,12.47,44.16-.38,4.49-2.59,14.82-2.59,14.82a36.64,36.64,0,0,0,14-11.71c14.3-21.15,19.33-65.37,5.71-90.91,5.71,3,8.25,5.25,12.47,9.87S448.14,604,448.14,604s8.45-6.29,10.7-22.71c5.29-38.82-9.27-58.93-12.46-64.24,2.12-18.29.2-26.36-2.67-37.34,21.54,9.51,55.52,13.37,62.54,37.2,2.44,8.31-1.83,15.38-6.16,21.88,6,2.16,15.41-.39,20.19-2.13,15.7-5.71,29.25-18.95,37.92-32.73,9.69-15.41,16-31.74,17.66-53C579.23,406.79,553.38,378.84,529.11,356.89Z" transform="translate(-33.9 -110.46)"/><path class="cls-3" d="M491.85,315.75c-5.44-4.66-14.36,2.07-15.07,4.13-4.46,5.18-.54,6.39-.07,6.35s4.06-5.74,6.27-6.79C485.81,318.1,493.24,316.94,491.85,315.75Z" transform="translate(-33.9 -110.46)"/><path class="cls-4" d="M426.25,473.78c5.89,10.09,8.9,34.16,1.56,45.2-25.71-4.22-45.72-20.33-59.75-36.88a215.29,215.29,0,0,1-36.37-60.27c16.55,19.63,40.7,32.55,67.54,43.12,3.61,1.42,9.7,3.58,11.84,5.37,9,7.58,9.74,20.39,11,34.12,3.77-16.26.53-27.08-6.23-33.77C419.34,471.69,422.75,472.77,426.25,473.78Z" transform="translate(-33.9 -110.46)"/><path class="cls-4" d="M411.07,470.32c-2.14-1.79-8.23-3.95-11.84-5.37-26.84-10.57-51-23.49-67.54-43.12a215.29,215.29,0,0,0,36.37,60.27c14,16.55,34,32.66,59.75,36.88,7.34-11,4.33-35.11-1.56-45.2-3.5-1-6.91-2.09-10.39-3.11,6.76,6.69,10,17.51,6.23,33.77C420.81,490.71,420.09,477.9,411.07,470.32Z" transform="translate(-33.9 -110.46)"/><path class="cls-1" d="M365.46,326.17a2.29,2.29,0,0,1-1.08-.26c-1.49-.74-1.51-2.47-1.54-4v-.49l.23-.44c2.18-4.2,7-9.42,11.61-10.83a6.63,6.63,0,0,1,5.23.35l1.25.68-.28,1.4c-.42,2.1-2.46,3.36-4.82,4.81-2.59,1.61-5.53,3.42-6.71,6.43l-.21.53-.46.34A6,6,0,0,1,365.46,326.17Z" transform="translate(-33.9 -110.46)"/><path class="cls-1" d="M569.05,434c-1-14.72-6-25.87-12.41-36.86-16.55-28.26-43.19-48.57-79.53-59.76-9.17-2.82-24.7-9.64-30.08-6.48-10.16,5.94-16.88,15.75-28.51,23.18-10.95,7-25.16,14.73-39.58,17.46-3.78.72-10.42.26-13.58-.39-13-2.69-24.48-12.59-39.38-14.8a70,70,0,0,0-16.1-.51c-21,1.93-43.89,24.38-35.85,50.39,5.17,16.76,16.32,31.87,27,45.19,22.4,28,50.41,46.4,79,66.5,14.42,10.16,30.27,18.42,50.39,22.34,10.93-10.42,10.6-37.17,6.75-53.51-.48-2-4.1-13.22-4.1-13.22l-3.75-1.5s4.9,12.72,5.78,17.84c2.32,13.63-2.73,32.2-5.61,32.93s-18.91-5-22.45-6.44c-11.83-4.89-23.82-14.14-33.25-23.37C345.42,465.26,324,423.45,313,382.35c-6.48,1.66-10.7,5-15.58,9.87,3.59-11.48,23.4-19.52,35.84-10.91a40,40,0,0,0-17.14,0C336.27,459.24,485.64,467,513.57,509.68c2.25,3.43,3.62,15.5-.9,19.53,14.34-1.93,16.71-4.89,24.83-11.9C557.76,499.8,571.38,468.13,569.05,434ZM433.52,375.08c-1.34-2-1.83-4.76-1.56-8.31,5.11-3.73,11.61-6.06,16.1-10.4C445.6,362.92,440.11,370.94,433.52,375.08Z" transform="translate(-33.9 -110.46)"/><path class="cls-1" d="M528.27,272.38c-2.57,4.48-2.88,5.32-6.76,12.23a192.78,192.78,0,0,0-8.2-29.34c-6.53-16.44-16.2-29.74-26.46-42.86-20.71-26.43-34.16-37.66-65-52.35-15.88-7.56-25.74-8.77-40-20.71,2.64,9.83,10.08,20,14.1,26.75-34.39-17.88-89.18-29.27-138.07-24.62-17.15,1.64-58.43,11.48-67.51,23.28,18.89-5.43,26.9-2.07,44.23,1.55C166.07,207.7,120.55,260.21,108.13,292c14-6.21,31.43-9.31,45-7.76-17.85,17.07-76,95.45-89.24,149,15.91-9.32,23.28-8.15,33.66-8.62-17.69,29.07-25.38,62.48-25.51,109.1a187.89,187.89,0,0,1,67.9-5c29.87,3.1,58.12,12.65,81.47,17.85,17.61,3.92,35.53,9.81,52,14.74C321,575.5,348.68,590,358,620.25c.55,2.42,2.59,13.44-.39,16.69,26.71,3.65,27.88-18.35,39.19-31.82,11.76,11.56,23.82,30.13,19.79,55.1,9.7-23.28,13.46-45.76,6.59-72.56-1.7-6.6-10.08-27.93-10.08-27.93s19.25,10.2,22.11,12.8c8.54,7.76,9.56,7.14,13.19,15.52,7.61-20.59,5-46.57-6.56-60.23-2.23,7.72-6.4,16.64-9.83,17.91s-17.79-5.8-24.46-8c-7.89,4.38-24.25,5-33.25,1,9.47.73,22.66,1.38,28.58-3.11-48.47-25.29-95.87-60-124.17-107.54-7.39-12.4-16-31.64-8.83-48.32,8.34-19.36,29.4-31,55.07-27.53,7.78,1.06,15.19,4,21.82,6.75,7.8,3.23,15.67,9,24.94,8.32,16.85-1.34,30.4-9.76,41.56-16.63a130.81,130.81,0,0,0,16.62-12.47c4.54-4,11.89-11.62,17.15-12.46,7.19-1.15,13.43,2.07,20,3.62,0,0,.32-1.32.5-2.15,2.92-13.49,15.49-17.15,25.36-17.16C508,310,525.06,325,515,346.15l-1.15,2.18a83.92,83.92,0,0,1,9.46,6.28C531.32,331.46,537,298.13,528.27,272.38ZM395.08,354.82c-16.2,8.33-39.13-1-41.05-18.71-1.76-16.18,8.75-29.44,22.86-31.69C408.59,299.38,419.32,342.33,395.08,354.82Zm19.75-42.16c-1,4.11-3,4.69-3.1,4.67a70,70,0,0,0-8.35-10.76c-3.48-3.55-8.17-6.31-11.57-8.22-13.5-7.57-26.12-1.84-37.2-2.3-2.39-2.59-3-7.44-1.58-11.82,10.78-3.53,31.62-3.44,42,2.52,5.38,3.11,9.9,6.11,14.2,11.34C412.64,302.28,416.4,306.27,414.83,312.66Zm98.36-7.46c-10.52-2.53-13.45-6.75-26.39-.51-3.5,1.69-8.4,4.08-12.12,7.37a69.88,69.88,0,0,0-9.09,10.15c-.13,0-2.83-1.92-3.1-4.19-.78-6.53,2.93-10.19,6.66-14.13a44,44,0,0,1,15-10.3c7.64-3.42,20.63-3.65,31.14.63C516.37,298.69,515.76,302.79,513.19,305.2Z" transform="translate(-33.9 -110.46)"/></svg>